<svg xmlns="http://www.w3.org/2000/svg" aria-hidden="true" 
style="position:absolute;width:0;height:0;overflow:hidden"><defs>
<symbol id="icon-Vector" viewBox="0 0 32 32"><path d="M32 3.223 28.777 0 16 12.777 3.223 0 0 3.223 12.777 16 0 28.777 3.223 32 16 19.223 28.777 32 32 28.777 19.223 16 32 3.223z"/></symbol><symbol id="icon-Ellipse-1" viewBox="0 0 32 32"><path fill="#fff" d="M32 16c0 8.837-7.163 16-16 16S0 24.837 0 16 7.163 0 16 0s16 7.163 16 16z" style="fill:var(--color1, #fff)"/><path fill="none" stroke="#000" stroke-width="1.067" d="M31.467 16c0 8.542-6.925 15.467-15.467 15.467S.533 24.542.533 16C.533 7.458 7.458.533 16 .533S31.467 7.458 31.467 16z" style="stroke:var(--color2, #000)"/></symbol>
<symbol id="icon-client-1" viewBox="0 0 59 32"><path d="m24.348 8.596 2.438 2.308-4.524-.003v11.196h11.826v-4.281l2.435 2.305V8.596H24.349zm9.632 8.949-6.911-6.543h6.911v6.543zm-2.146 2.914h-7.702v-7.53h.544v7.02h7.157v.51zm-5.883 3.128-.285.586-.285-.586h-.239l.415.781v.455h.216v-.455l.414-.781h-.238zm.357 1.236.1-.288h.479l.101.288h.224l-.468-1.236h-.193l-.467 1.236h.223zm.34-.974.179.513h-.358l.179-.513zm1.133.483a.325.325 0 0 0 .063.411c.073.065.172.097.294.097s.228-.033.316-.099l.07.082h.239l-.182-.215a.62.62 0 0 0 .107-.375h-.179a.49.49 0 0 1-.052.227l-.239-.282.084-.061c.059-.043.102-.086.128-.129s.039-.091.039-.143c0-.078-.029-.143-.087-.196s-.131-.08-.221-.08c-.1 0-.179.028-.238.085s-.088.132-.088.229c0 .04.009.081.028.123s.053.094.101.155a.726.726 0 0 0-.184.171zm.558.274a.32.32 0 0 1-.195.07c-.062 0-.111-.018-.148-.053s-.055-.082-.055-.139c0-.066.034-.125.102-.177l.026-.019.27.318zm-.222-.548c-.058-.072-.087-.132-.087-.179 0-.041.012-.076.036-.103s.056-.041.096-.041c.037 0 .068.012.093.035s.037.05.037.082a.153.153 0 0 1-.053.12l-.026.021-.094.065zm2.013.672a.445.445 0 0 0 .146-.309h-.214c-.011.088-.038.151-.081.189s-.106.057-.19.057c-.092 0-.162-.035-.211-.105s-.071-.172-.071-.306v-.11c.001-.132.027-.232.076-.3s.122-.103.216-.103c.08 0 .141.02.183.059s.068.103.078.192h.214c-.014-.135-.062-.24-.145-.314s-.193-.111-.329-.111a.465.465 0 0 0-.445.278.73.73 0 0 0-.062.308v.115c.002.114.023.214.064.3s.099.153.173.2a.49.49 0 0 0 .261.07.503.503 0 0 0 .339-.11zm1.262-.173a.76.76 0 0 0 .063-.319v-.069c-.001-.121-.022-.226-.065-.317a.477.477 0 0 0-.448-.282.482.482 0 0 0-.449.285.748.748 0 0 0-.064.319v.07c.001.118.022.223.065.313s.104.16.182.21a.497.497 0 0 0 .268.073c.101 0 .191-.024.268-.073s.138-.119.18-.211zm-.23-.699a.539.539 0 0 1 .078.315v.065c0 .139-.026.245-.077.318s-.124.109-.219.109c-.094 0-.168-.037-.221-.111s-.079-.179-.079-.315v-.071c.001-.133.028-.236.08-.308s.125-.11.218-.11c.095 0 .168.037.22.11z"/></symbol><symbol id="icon-client-2" viewBox="0 0 59 32"><path d="M28.561 8.225h-.047a8.01 8.01 0 0 0-.219-.008h-.158a8.433 8.433 0 0 0-.451.011 9.846 9.846 0 0 0-3.658.933l-.15.073v7.701l.352-.119c.309-.106.638-.202.978-.29a11.952 11.952 0 0 1 2.816-.374v1.012a7.468 7.468 0 0 0-.37.011h-.029c-.731.04-1.457.151-2.166.333-.899.225-1.766.563-2.581 1.006V8.637a10.334 10.334 0 0 1 2.707-1.101 10.367 10.367 0 0 1 2.552-.329h.149c.178.004.351.012.514.025.429.03.854.098 1.271.203v.996a8 8 0 0 0-1.232-.186l-.025-.002c-.086-.007-.172-.015-.252-.015zm1.753 1.018c.221.017.45.025.681.025a10.942 10.942 0 0 0 2.683-.344 11.049 11.049 0 0 0 2.58-1.007v9.701c-.847.493-1.758.864-2.708 1.101-.834.214-1.691.325-2.552.328a7.802 7.802 0 0 1-1.936-.228V9.055c.15.034.304.066.46.093.257.043.528.075.792.095zm4.937.076-.352.118c-.324.109-.65.206-.978.293-.956.246-1.938.371-2.924.375-.23 0-.441-.006-.645-.019l-.281-.019v7.922l.241.021c.224.019.454.029.686.029a9.326 9.326 0 0 0 2.303-.298 9.582 9.582 0 0 0 1.799-.647l.151-.073V9.317zM23.561 21.887a.53.53 0 0 0-.392-.158.585.585 0 0 0-.226.042.519.519 0 0 0-.289.293.582.582 0 0 0-.041.218v1.32a.63.63 0 0 0 .052.271.482.482 0 0 0 .313.271c.064.018.13.027.197.027a.55.55 0 0 0 .546-.555v-.148h-.345v.118a.319.319 0 0 1-.02.118.206.206 0 0 1-.05.074.217.217 0 0 1-.072.038.222.222 0 0 1-.072.012c-.031.004-.062-.001-.09-.014s-.053-.032-.071-.057a.315.315 0 0 1-.046-.177v-1.23a.419.419 0 0 1 .042-.197.174.174 0 0 1 .169-.079.182.182 0 0 1 .154.074.276.276 0 0 1 .057.177v.114h.341v-.134a.63.63 0 0 0-.042-.231.552.552 0 0 0-.115-.186zM25.61 21.872a.605.605 0 0 0-.78 0 .537.537 0 0 0-.134.185.61.61 0 0 0-.05.256v1.266a.62.62 0 0 0 .05.259.516.516 0 0 0 .134.177.534.534 0 0 0 .182.111.605.605 0 0 0 .412 0c.069-.025.132-.063.187-.111s.099-.11.13-.177a.608.608 0 0 0 .05-.259v-1.266a.574.574 0 0 0-.18-.441zm-.161 1.706c.003.034-.002.068-.014.099s-.031.06-.055.084a.254.254 0 0 1-.324 0 .227.227 0 0 1-.069-.183v-1.266c-.003-.034.002-.068.014-.099s.031-.06.055-.084a.254.254 0 0 1 .324 0 .227.227 0 0 1 .069.183v1.266zM28.302 24.143v-2.396h-.332l-.436 1.268h-.006l-.439-1.268h-.328v2.396h.342v-1.458h.006l.335 1.03h.171l.338-1.03h.006v1.458h.342zM30.246 21.915a.478.478 0 0 0-.194-.131.746.746 0 0 0-.248-.037h-.509v2.396h.341v-.936h.176a.629.629 0 0 0 .308-.065.49.49 0 0 0 .187-.183.582.582 0 0 0 .078-.209c.013-.09.02-.181.018-.272a1.403 1.403 0 0 0-.033-.342.506.506 0 0 0-.126-.22zm-.176.731a.29.29 0 0 1-.032.125.193.193 0 0 1-.088.084.345.345 0 0 1-.161.03h-.156v-.815h.176a.327.327 0 0 1 .154.03c.035.02.063.051.08.088a.34.34 0 0 1 .03.134v.159c0 .055.003.113 0 .165h-.003zM31.864 21.747h-.28l-.528 2.396h.341l.1-.515h.465l.1.515h.341l-.541-2.396zm-.315 1.555.168-.869h.006l.167.869h-.341zM34.069 23.191h-.006l-.516-1.443h-.328v2.396h.341v-1.441h.007l.522 1.441h.321v-2.396h-.341v1.443zM36.156 21.747l-.275.953h-.007l-.274-.953h-.362l.469 1.383v1.013h.342V23.13l.469-1.383h-.361zM22.609 24.82h.165v.462h.112v-.462h.164v-.095h-.44v.095zM23.992 24.725l-.216.556h.119l.046-.127h.222l.047.127h.121l-.221-.556h-.119zm-.018.337.076-.206.076.206h-.151zM25.359 25.077h.128v.072a.213.213 0 0 1-.132.047.14.14 0 0 1-.118-.053.232.232 0 0 1-.041-.145c0-.124.054-.186.16-.186a.118.118 0 0 1 .126.089l.11-.021c-.024-.109-.102-.164-.236-.164a.277.277 0 0 0-.194.072.278.278 0 0 0-.081.214.305.305 0 0 0 .071.209.265.265 0 0 0 .211.081.337.337 0 0 0 .236-.088v-.219h-.241v.094zM26.756 24.725h-.113v.556h.39v-.095h-.277v-.462zM27.937 24.725h-.113v.556h.113v-.556zM29.091 25.097l-.228-.371h-.109v.556h.105v-.364l.224.364h.112v-.556h-.103v.371zM30.135 25.037h.277v-.095h-.277v-.122h.298v-.095h-.411v.556h.422v-.095h-.31v-.15zM32.665 24.945h-.219v-.219h-.112v.556h.112v-.243h.219v.243h.112v-.556h-.112v.219zM33.715 25.037h.278v-.095h-.278v-.122h.299v-.095h-.411v.556h.421v-.095h-.31v-.15zM35.138 25.037c.097-.015.146-.066.146-.155a.129.129 0 0 0-.054-.123.315.315 0 0 0-.163-.033h-.236v.556h.112v-.233h.022a.167.167 0 0 1 .07.012.12.12 0 0 1 .04.041l.121.177h.134l-.068-.109a.395.395 0 0 0-.123-.134zm-.112-.077h-.082v-.14h.088a.288.288 0 0 1 .113.013c.008.007.015.016.019.026s.006.021.006.032a.068.068 0 0 1-.029.055.313.313 0 0 1-.114.013zM36.212 25.037h.277v-.095h-.277v-.122h.299v-.095h-.412v.556h.422v-.095h-.31v-.15z"/></symbol><symbol id="icon-client-3" viewBox="0 0 59 32"><path d="M23.794 22.644c.006 0 .011.001.016.003l.013.008.076.073a.627.627 0 0 1-.213.138.817.817 0 0 1-.303.049.811.811 0 0 1-.285-.046.579.579 0 0 1-.352-.331.675.675 0 0 1-.048-.258.596.596 0 0 1 .199-.46.687.687 0 0 1 .228-.131.903.903 0 0 1 .293-.046.778.778 0 0 1 .272.042.745.745 0 0 1 .204.116l-.064.077a.073.073 0 0 1-.016.014.053.053 0 0 1-.053-.002l-.034-.021-.047-.026c-.02-.01-.042-.018-.064-.026a.634.634 0 0 0-.409.006.45.45 0 0 0-.272.252.518.518 0 0 0-.039.204.534.534 0 0 0 .039.208.454.454 0 0 0 .105.154.426.426 0 0 0 .157.096.559.559 0 0 0 .195.033.753.753 0 0 0 .116-.007.472.472 0 0 0 .25-.106.059.059 0 0 1 .036-.013zM25.984 22.28a.633.633 0 0 1-.051.256c-.031.074-.08.142-.143.199s-.14.101-.224.131a.918.918 0 0 1-.577 0 .664.664 0 0 1-.223-.131.587.587 0 0 1-.144-.201.67.67 0 0 1 0-.513.6.6 0 0 1 .144-.202.662.662 0 0 1 .223-.126.904.904 0 0 1 .577 0c.084.03.16.074.224.131s.111.125.143.199c.035.082.053.17.051.258zm-.199 0a.54.54 0 0 0-.036-.206.43.43 0 0 0-.261-.251.667.667 0 0 0-.419 0 .455.455 0 0 0-.16.097.411.411 0 0 0-.102.154.607.607 0 0 0 0 .412.411.411 0 0 0 .262.25.682.682 0 0 0 .419 0 .439.439 0 0 0 .16-.096.43.43 0 0 0 .101-.154.54.54 0 0 0 .036-.206zM27.479 22.496l.02.046.022-.046c.008-.015.015-.031.025-.045l.485-.765c.009-.013.018-.021.027-.024a.133.133 0 0 1 .04-.004h.143v1.245h-.17V21.906l-.487.776c-.006.012-.016.021-.029.028s-.027.01-.042.01h-.027c-.015 0-.029-.003-.042-.01s-.022-.017-.028-.028l-.502-.781v.999h-.164v-1.242h.143a.136.136 0 0 1 .04.004.058.058 0 0 1 .027.024l.495.766c.01.014.018.029.025.044zM29.302 22.434v.466h-.19v-1.243h.423a.934.934 0 0 1 .236.027.49.49 0 0 1 .167.077.32.32 0 0 1 .095.122.383.383 0 0 1 .032.159.351.351 0 0 1-.137.283.479.479 0 0 1-.168.082.8.8 0 0 1-.229.029l-.23-.003zm0-.134h.23a.52.52 0 0 0 .147-.019.313.313 0 0 0 .106-.054.209.209 0 0 0 .064-.082.255.255 0 0 0 .023-.105c.002-.035-.004-.069-.019-.101s-.037-.061-.066-.085a.408.408 0 0 0-.255-.067h-.23v.512zM31.852 22.902h-.15a.076.076 0 0 1-.042-.012.086.086 0 0 1-.025-.029l-.129-.301h-.648l-.134.301a.07.07 0 0 1-.067.04h-.15l.569-1.245h.197l.577 1.245zm-.939-.463h.535l-.226-.507a.82.82 0 0 1-.043-.117l-.022.065a.586.586 0 0 1-.021.053l-.224.506zM32.671 21.662a.076.076 0 0 1 .028.022l.83.939v-.967h.17v1.245h-.095c-.013 0-.027-.002-.039-.007s-.022-.014-.03-.023l-.829-.938v.968h-.17v-1.245h.101c.012 0 .023.002.034.006zM35.097 22.407v.494h-.19v-.494l-.525-.75h.17a.065.065 0 0 1 .041.011c.01.008.019.017.026.028l.328.484c.013.021.025.04.034.058s.017.035.024.053l.025-.054a.397.397 0 0 1 .032-.057l.323-.487a.103.103 0 0 1 .025-.026.059.059 0 0 1 .041-.012h.172l-.526.753zM27.385 19.567c.082.009.166.017.25.023 1.28-.497 2.362-1.311 3.112-2.34s1.134-2.227 1.105-3.445l-1.41-1.225c.287 1.296.153 2.637-.387 3.871s-1.465 2.313-2.67 3.117z"/><path d="m26.881 19.51.038.007c1.288-.801 2.271-1.919 2.82-3.209s.64-2.695.261-4.031l-2.009-1.745c.812 1.434 1.139 3.04.943 4.629s-.908 3.098-2.053 4.35zM33.693 15.244c-.341 1.338-1.17 2.545-2.363 3.441a7.477 7.477 0 0 1-1.123.7c.972-.248 1.865-.687 2.61-1.282s1.324-1.332 1.69-2.152l-.815-.707z"/><path d="m33.374 15.047-1.16-1.008c-.022 1.149-.398 2.272-1.089 3.252s-1.671 1.781-2.838 2.321h.006c.26 0 .52-.014.779-.04 1.091-.387 2.055-1.003 2.806-1.792s1.265-1.728 1.497-2.732zM27.049 9.795l-1.384-1.204c-1.237.415-2.301 1.145-3.052 2.095s-1.156 2.074-1.159 3.226c.005 1.273.498 2.508 1.401 3.511s2.166 1.714 3.588 2.022c1.269-1.343 2.012-3.003 2.121-4.739s-.422-3.456-1.515-4.911zM36.57 14.862c-.005-1.51-.698-2.958-1.927-4.026s-2.895-1.67-4.634-1.674a7.353 7.353 0 0 0-2.349.38l8.471 7.36c.29-.651.439-1.342.438-2.04z"/></symbol><symbol id="icon-client-4" viewBox="0 0 59 32"><path d="M19.529 12.905h-.001c-.834 0-1.51.601-1.51 1.342v.001c0 .741.676 1.342 1.51 1.342h.001c.834 0 1.51-.601 1.51-1.342v-.001c0-.741-.676-1.342-1.51-1.342zM30.677 12.476c-.002-1.03-.464-2.016-1.283-2.744s-1.929-1.138-3.088-1.141c-1.159.002-2.27.412-3.089 1.14s-1.281 1.715-1.283 2.745v5.678s8.742-.865 8.743-5.677v-.001zM14.957 20.017c.002.716.323 1.403.893 1.91s1.342.792 2.148.794c.806-.002 1.578-.288 2.148-.794s.891-1.193.893-1.909v-3.951s-6.083.603-6.083 3.95zm3.041.708c-.158 0-.311-.041-.442-.119s-.233-.188-.293-.318c-.06-.129-.076-.272-.045-.409s.107-.263.218-.362c.111-.099.253-.166.408-.194s.315-.013.46.04c.146.054.27.144.357.261s.134.253.134.393c0 .093-.02.186-.06.272s-.098.165-.172.23c-.074.066-.162.118-.259.154s-.201.054-.305.054v-.003zM24.145 20.335h-.587v.606h-.306v-1.484h.966v.248h-.66v.383h.587v.247zm1.47-.102c0 .146-.026.274-.077.384a.583.583 0 0 1-.552.345.589.589 0 0 1-.553-.342.876.876 0 0 1-.081-.379v-.073c0-.146.026-.274.078-.385a.583.583 0 0 1 .553-.346c.123 0 .233.03.329.09.096.059.171.144.223.256s.079.239.079.384v.066zm-.31-.067c0-.156-.028-.274-.084-.355s-.135-.121-.238-.121c-.103 0-.182.04-.237.12s-.084.196-.085.351v.072c0 .151.028.269.084.353s.136.125.241.125c.103 0 .181-.04.236-.12s.083-.198.084-.353v-.072zm1.301.386c0-.058-.02-.102-.061-.133s-.114-.064-.22-.098a1.662 1.662 0 0 1-.252-.102c-.168-.091-.253-.214-.253-.368 0-.08.022-.151.067-.214s.11-.112.195-.148c.085-.035.18-.053.285-.053s.2.019.283.058c.083.038.147.092.193.162s.069.149.069.238h-.306c0-.068-.021-.121-.064-.158s-.103-.057-.18-.057c-.075 0-.133.016-.174.048s-.062.073-.062.124c0 .048.024.089.072.121s.121.063.215.092c.174.052.301.117.38.195s.119.174.119.289c0 .128-.049.229-.146.303s-.228.109-.392.109c-.114 0-.218-.021-.312-.062s-.165-.099-.215-.172a.442.442 0 0 1-.073-.253h.307c0 .164.098.246.293.246.073 0 .129-.015.17-.044s.061-.071.061-.124zm1.632-.847h-.454v1.236h-.306v-1.236h-.448v-.248h1.209v.248zm1.068.594h-.587v.397h.689v.246h-.995v-1.484h.993v.248h-.687v.354h.587v.239zm.83.099h-.244v.543h-.306v-1.484h.551c.175 0 .31.039.406.117s.143.189.143.331c0 .101-.022.186-.066.254s-.11.121-.199.161l.321.606v.014h-.328l-.278-.543zm-.243-.247h.247c.077 0 .136-.019.178-.058s.063-.093.063-.162c0-.07-.02-.125-.06-.165s-.1-.06-.182-.06h-.246v.445zm1.852.268v.523h-.306v-1.484h.579c.111 0 .209.02.294.061a.456.456 0 0 1 .264.43c0 .145-.05.26-.15.344s-.237.125-.413.125h-.268zm0-.248h.273c.081 0 .142-.019.184-.057s.064-.092.064-.163c0-.073-.021-.131-.064-.176s-.102-.068-.177-.069h-.28v.466zm1.934.128h-.587v.397h.689v.246h-.995v-1.484h.993v.248h-.687v.354h.587v.239zm1.419-.594h-.455v1.236h-.306v-1.236h-.448v-.248h1.209v.248zm1.068.594h-.587v.397h.689v.246h-.994v-1.484h.992v.248h-.687v.354h.587v.239zm.83.099h-.243v.543h-.306v-1.484h.551c.175 0 .31.039.406.117s.143.189.143.331c0 .101-.022.186-.066.254s-.11.121-.199.161l.321.606v.014h-.328l-.278-.543zm-.243-.247H37c.077 0 .136-.019.178-.058s.063-.093.063-.162c0-.07-.02-.125-.06-.165s-.1-.06-.182-.06h-.246v.445zm1.796.401c0-.058-.021-.102-.061-.133s-.114-.064-.22-.098a1.602 1.602 0 0 1-.251-.102c-.169-.091-.253-.214-.253-.368 0-.08.022-.151.067-.214s.111-.112.195-.148a.742.742 0 0 1 .285-.053c.106 0 .2.019.283.058s.147.092.192.162c.046.07.07.149.07.238h-.306c0-.068-.022-.121-.064-.158s-.103-.057-.18-.057c-.075 0-.133.016-.174.048s-.062.073-.062.124c0 .048.024.089.072.121s.121.063.215.092c.174.052.301.117.38.195s.119.174.119.289c0 .128-.049.229-.146.303s-.228.109-.392.109c-.114 0-.218-.021-.312-.062s-.165-.099-.215-.172a.442.442 0 0 1-.073-.253h.307c0 .164.098.246.294.246.073 0 .129-.015.17-.044s.061-.071.061-.124z"/></symbol><symbol id="icon-client-5" viewBox="0 0 59 32"><path d="M20.437 21.125c.085.096.13.216.128.34.004.081-.011.161-.045.235s-.086.141-.152.194a.92.92 0 0 1-.575.157h-1.01v-2.154h.989a.904.904 0 0 1 .548.143c.064.049.114.111.148.181s.048.146.044.222a.468.468 0 0 1-.115.329.542.542 0 0 1-.301.168.586.586 0 0 1 .341.184zm-1.184-.325h.423a.43.43 0 0 0 .269-.072.251.251 0 0 0 .091-.211c.003-.039-.003-.078-.019-.114s-.04-.069-.071-.096a.44.44 0 0 0-.277-.073h-.416v.565zm.733.826c.034-.027.061-.061.078-.099s.025-.079.022-.12c.003-.042-.005-.083-.023-.121s-.045-.072-.079-.1a.465.465 0 0 0-.287-.078h-.444v.592h.449a.478.478 0 0 0 .284-.075zM22.459 22.051l-.55-.842h-.207v.842h-.473v-2.154h.896a.942.942 0 0 1 .624.183c.125.117.201.271.213.434s-.04.325-.146.457a.753.753 0 0 1-.427.219l.586.861h-.515zm-.757-1.135h.387c.269 0 .403-.109.403-.326a.304.304 0 0 0-.099-.242.443.443 0 0 0-.305-.087h-.392l.005.655zM25.047 21.618h-.943l-.167.433h-.496l.866-2.129h.537l.863 2.129h-.496l-.163-.433zm-.126-.327-.345-.909-.345.909h.689zM28.286 22.051h-.47l-1.054-1.464v1.464h-.469v-2.154h.469l1.054 1.473v-1.473h.47v2.154zM30.968 21.536a.976.976 0 0 1-.425.38 1.496 1.496 0 0 1-.661.136h-.837v-2.154h.837c.229-.005.455.04.661.133.18.083.328.214.425.376a1.164 1.164 0 0 1 0 1.13zm-.538-.052c.134-.143.208-.325.208-.514s-.074-.371-.208-.514a.865.865 0 0 0-.588-.183h-.326v1.394h.326a.864.864 0 0 0 .588-.183zM25.341 7.919s6.066 2.097 5.937 5.131v5.132s-6.061-2.098-5.935-5.132l-.002-5.131zM36.682 16.98a8.793 8.793 0 0 1 3.854-1.3v-1.607c-1.594.562-2.946 1.582-3.854 2.907z"/><path d="M35.994 17.464c.937-1.729 2.563-3.063 4.542-3.727V9.108s-8.638 2.987-8.456 7.308v7.307s.385-.134.99-.384c0-.234 0-.469.028-.706.179-2.006 1.22-3.865 2.896-5.168z"/><path d="M35.172 20.178a6.919 6.919 0 0 1 .302-1.496c-1.043 1.125-1.675 2.522-1.806 3.993a5.81 5.81 0 0 0-.023.421 25.701 25.701 0 0 0 1.661-.802 6.936 6.936 0 0 1-.134-2.116zM35.515 20.205a6.629 6.629 0 0 0 .107 1.916c2.36-1.293 5.012-3.291 4.91-5.705v-.21c-1.686.173-3.264.848-4.49 1.921a6.711 6.711 0 0 0-.526 2.079z"/></symbol><symbol id="icon-client-6" viewBox="0 0 59 32"><path d="M29.713 15.098a1.024 1.024 0 0 1-.21-.692v-1.003c0-.307.07-.541.209-.701s.379-.239.718-.239c.319 0 .546.068.679.204a.833.833 0 0 1 .201.6v.236h-.571v-.239a1.153 1.153 0 0 0-.017-.234.224.224 0 0 0-.082-.139.33.33 0 0 0-.207-.054.346.346 0 0 0-.217.057.27.27 0 0 0-.095.153 1.15 1.15 0 0 0-.022.248v1.217a.624.624 0 0 0 .073.342c.028.036.068.065.114.083s.097.025.147.019a.314.314 0 0 0 .202-.055.245.245 0 0 0 .085-.148c.013-.081.019-.162.018-.244v-.247h.571v.225a.916.916 0 0 1-.197.63c-.131.149-.355.223-.683.223s-.577-.08-.717-.245zM32.089 15.109c-.144-.156-.216-.384-.216-.685v-1.055c0-.298.072-.523.216-.676s.385-.229.723-.229c.336 0 .575.076.72.229s.217.379.217.676v1.055c0 .298-.073.526-.22.684s-.385.236-.717.236c-.332 0-.578-.08-.723-.235zm.989-.253a.592.592 0 0 0 .069-.312v-1.292a.579.579 0 0 0-.067-.306c-.029-.037-.069-.066-.117-.084s-.099-.024-.151-.018c-.051-.006-.103 0-.151.018s-.088.047-.117.084a.569.569 0 0 0-.069.306v1.298a.572.572 0 0 0 .069.312c.033.033.074.059.12.077a.404.404 0 0 0 .414-.077v-.006zM34.436 12.495h.614l.462 1.946.473-1.946h.598l.061 2.809h-.442l-.047-1.952-.456 1.952h-.354l-.473-1.96-.044 1.96h-.447l.056-2.809zM37.332 12.495h.957c.551 0 .827.266.827.798 0 .509-.29.764-.871.763h-.326v1.249h-.591l.003-2.809zm.818 1.201a.464.464 0 0 0 .325-.089.451.451 0 0 0 .085-.317.88.88 0 0 0-.029-.255c-.008-.028-.023-.054-.043-.077s-.046-.042-.074-.057a.62.62 0 0 0-.264-.045h-.229v.839h.229zM39.968 12.495h.635l.651 2.809h-.551l-.129-.648h-.566l-.133.648h-.559l.651-2.809zm.543 1.836-.221-1.179-.221 1.179h.442zM41.78 12.495h.414l.792 1.603v-1.603h.49v2.809h-.393l-.797-1.673v1.673h-.507l.001-2.809zM44.624 14.233l-.658-1.734h.554l.402 1.114.377-1.114h.543l-.65 1.734v1.071h-.567v-1.071zM30.625 16.533v.147h-.482v1.142h-.202V16.68h-.484v-.147h1.169zM32.137 17.821h-.156a.068.068 0 0 1-.044-.012.063.063 0 0 1-.026-.03l-.139-.306h-.669l-.139.306a.084.084 0 0 1-.021.035.067.067 0 0 1-.044.012h-.156l.591-1.288h.206l.598 1.283zm-.979-.478h.558l-.236-.524a1.097 1.097 0 0 1-.044-.121l-.022.068-.021.054-.234.523zM33.155 17.695a.752.752 0 0 0 .37-.07v-.29h-.236c-.006 0-.012 0-.017-.002s-.011-.004-.015-.008c-.004-.003-.007-.006-.009-.011s-.003-.008-.003-.013v-.099h.458v.494a.822.822 0 0 1-.249.105 1.206 1.206 0 0 1-.32.035.882.882 0 0 1-.298-.048.734.734 0 0 1-.236-.135.609.609 0 0 1-.206-.471.6.6 0 0 1 .205-.473.721.721 0 0 1 .236-.134.995.995 0 0 1 .317-.048c.055 0 .11.004.164.011a.85.85 0 0 1 .259.084.961.961 0 0 1 .103.067l-.057.08a.055.055 0 0 1-.046.025.079.079 0 0 1-.037-.01.48.48 0 0 1-.058-.031.558.558 0 0 0-.188-.064.842.842 0 0 0-.378.025.455.455 0 0 0-.284.262.601.601 0 0 0 0 .43.499.499 0 0 0 .291.264.683.683 0 0 0 .234.026zM35.039 17.674h.645v.147h-.842v-1.288h.202l-.005 1.142zM36.355 17.821h-.202v-1.288h.202v1.288zM37.106 16.539a.104.104 0 0 1 .031.023l.864.971a.353.353 0 0 1 0-.046V16.527h.176v1.294h-.102a.095.095 0 0 1-.044-.007.128.128 0 0 1-.032-.024l-.863-.97v1.002h-.169v-1.289h.105c.011 0 .023.002.033.006zM39.665 16.533v.142h-.716v.425h.58v.137h-.58v.44h.716v.142h-.924v-1.285h.924zM18.491 8.576l8.972 2.199v7.707l-8.972-2.198V8.576zm-.575-.657v8.739l10.122 2.482v-8.738L17.916 7.919z"/><path d="m23.34 23.197-10.123-2.484v-8.739l10.123 2.483v8.74z"/><path d="m18.083 8.477 8.855 2.172-3.766 3.252-8.856-2.173 3.767-3.251zm-.167-.558-4.698 4.056 10.123 2.483 4.697-4.056-10.122-2.483zM23.91 22.706l4.127-3.564-4.127-1.013v4.577z"/></symbol><symbol id="icon-smartphone" viewBox="0 0 20 32"><path d="M17 0H3C1.346 0 0 1.346 0 3v26c0 1.654 1.346 3 3 3h14c1.654 0 3-1.346 3-3V3c0-1.654-1.346-3-3-3zM3 2h14a1 1 0 0 1 1 1v21H2V3a1 1 0 0 1 1-1zm14 28H3a1 1 0 0 1-1-1v-3h16v3a1 1 0 0 1-1 1z"/><path d="M4.707 27.478c.391.365.391.956 0 1.321s-1.024.365-1.414 0c-.391-.365-.391-.956 0-1.321s1.024-.365 1.414 0z"/></symbol><symbol id="icon-envelope" viewBox="0 0 43 32"><path d="M38.667 0H4C1.794 0 0 1.794 0 4v24c0 2.206 1.794 4 4 4h34.667c2.206 0 4-1.794 4-4V4c0-2.206-1.794-4-4-4zm0 2.667c.181 0 .353.038.511.103L21.334 18.236 3.49 2.77a1.32 1.32 0 0 1 .511-.103h34.667zm0 26.666H4A1.334 1.334 0 0 1 2.667 28V5.587L20.46 21.008a1.335 1.335 0 0 0 1.748 0L40.001 5.587V28c0 .736-.598 1.333-1.333 1.333z"/></symbol><symbol id="icon-antenna-1" viewBox="0 0 20 20"><path d="m19.233 13.811-5.277-5.316.586-2.885c.151.059.312.09.474.091h.004a1.35 1.35 0 1 0-1.255-.897l-3.1.378L5.608.099A.328.328 0 0 0 5.14.096l-.945.94a.333.333 0 0 0 0 .471l.509.516a9.337 9.337 0 0 0 1.575 11.039.323.323 0 0 0 .091.061 1.962 1.962 0 0 0-.033.342v3.867h-4A1.67 1.67 0 0 0 .67 18.999v.667c0 .184.149.333.333.333h15.333a.333.333 0 0 0 .333-.333v-.667a1.67 1.67 0 0 0-1.667-1.667h-4v-1.714a9.457 9.457 0 0 0 1.905.2 9.287 9.287 0 0 0 4.4-1.115l.511.514a.336.336 0 0 0 .235.1.33.33 0 0 0 .233-.097l.945-.94a.333.333 0 0 0 0-.471zM14.55 3.896a.667.667 0 1 1 .47 1.14h-.002a.667.667 0 0 1-.466-1.139h-.001zm-.785 2.19-.374 1.841-.735-.739 1.109-1.102zm-.378-.564-1.2 1.193-.928-.933 2.128-.26zM15.003 18a1 1 0 0 1 1 1v.333H1.336V19a1 1 0 0 1 1-1h12.667zm-4.667-1.333v.667H7.003v-.667h3.333zM7.003 16v-2.533c0-.809.748-1.467 1.667-1.467s1.667.658 1.667 1.467V16H7.004zm4-1.06v-1.473c0-1.176-1.047-2.133-2.333-2.133a2.376 2.376 0 0 0-2.051 1.116 8.668 8.668 0 0 1-1.424-9.929l11.626 11.693a8.641 8.641 0 0 1-5.818.727zm7.055-.427L4.897 1.275l.472-.47 4.959 4.987c.002 0 .004.004.006.006l8.197 8.245-.473.47z"/><path d="M8.672 12.667h-.003a1 1 0 0 0-.003 2h.003a.999.999 0 1 0 .003-2zm.234 1.236a.334.334 0 1 1-.237-.57.334.334 0 0 1 .234.57h.003z"/></symbol><symbol id="icon-astronaut-1" viewBox="0 0 20 20"><path d="M19.984 2.828a.335.335 0 0 0-.269-.227l-1.194-.174-.534-1.082c-.112-.228-.486-.228-.598 0l-.534 1.082-1.194.174a.334.334 0 0 0-.185.569l.864.842-.204 1.189a.335.335 0 0 0 .132.326.33.33 0 0 0 .351.025l1.068-.562 1.068.562a.329.329 0 0 0 .351-.026.332.332 0 0 0 .132-.326l-.204-1.189.864-.842a.334.334 0 0 0 .084-.342zm-1.54.829a.336.336 0 0 0-.096.295l.119.696-.625-.329a.329.329 0 0 0-.31 0l-.625.329.119-.696a.331.331 0 0 0-.096-.295l-.506-.493.699-.102a.334.334 0 0 0 .251-.182l.313-.633.313.633a.332.332 0 0 0 .251.182l.699.102-.506.493zM16.333 12.826h-.667v.667h.667v-.667zM16.333 14.16h-.667v.667h.667v-.667zM17 13.493h-.667v.667H17v-.667zM15.667 13.493H15v.667h.667v-.667zM14 16.493h-.667v.667H14v-.667zM14 17.826h-.667v.667H14v-.667zM14.667 17.16H14v.667h.667v-.667zM13.333 17.16h-.667v.667h.667v-.667zM10 15.16h-.667v.667H10v-.667zM10 16.493h-.667v.667H10v-.667zM10.667 15.826H10v.667h.667v-.667zM9.333 15.826h-.667v.667h.667v-.667zM3.667 3.826H3v.667h.667v-.667zM3.667 5.16H3v.667h.667V5.16zM4.333 4.493h-.667v.667h.667v-.667zM3 4.493h-.667v.667H3v-.667z"/><path d="M15.447 8.85a1.11 1.11 0 0 0-.743-.44 1.106 1.106 0 0 0-.837.22l-.783.6-1.186.886-.849-.338a4.337 4.337 0 0 0 2.571-3.95c0-2.389-1.952-4.333-4.351-4.333S4.918 3.439 4.918 5.828c0 .866.259 1.671.7 2.349l-1.727-.015h-.003l-.015.003a.327.327 0 0 0-.097.019l-.024.008-.012.004-2.021.998h-.001l-1.183.569a1.113 1.113 0 0 0 .247 2.013 1.117 1.117 0 0 0 .862-.08l.867-.461 1.415-.731.848-.005-3.401 3.385-.001.001-.837.833a1.036 1.036 0 0 0 .737 1.776c.267 0 .534-.101.738-.303l.821-.818 1.088-.812.563.561-1.101 1.096-.001.001-.837.833a1.036 1.036 0 0 0 .737 1.776c.267 0 .534-.101.738-.303l2.176-2.167.001-.001.631-.625-.002-.002c.004-.004.01-.005.014-.01l3.229-3.536 2.169.309a.34.34 0 0 0 .195-.036c.012-.006.025-.009.036-.017l2.008-1.333c.007-.005.011-.013.018-.018.008-.006.018-.009.025-.016l.795-.744c.413-.387.47-1.022.132-1.476zM1.332 11.106a.45.45 0 0 1-.616-.192.446.446 0 0 1 .134-.564l.821-.395.281.82-.62.33zm2.185-1.142-.968.5-.274-.802 1.267-.625-.025.927zm9.437-4.138c0 .574-.137 1.115-.374 1.6L9.967 6.239a1.16 1.16 0 0 0-.493-.867l.915-3.038a3.674 3.674 0 0 1 2.565 3.492zm-7.368 0c0-2.022 1.653-3.667 3.684-3.667.158 0 .313.013.466.033l-.895 2.971c-.012 0-.023-.004-.036-.004-.645 0-1.17.523-1.17 1.167s.525 1.167 1.17 1.167c.434 0 .809-.24 1.011-.59L12.23 8a3.684 3.684 0 0 1-6.644-2.173zm3.723.5c0 .276-.226.5-.504.5s-.504-.224-.504-.5.226-.5.504-.5.504.224.504.5zm-7.768 9.39a.38.38 0 0 1-.534 0 .372.372 0 0 1 0-.527l.601-.599.532.53-.599.597zm2.008 2.334a.38.38 0 0 1-.534 0 .372.372 0 0 1 0-.527l.602-.599.532.53-.6.597zm2.176-2.168-.001.001-1.103 1.1-.532-.53 1.102-1.097.001-.001a.313.313 0 0 0 .056-.085c.004-.009.013-.016.016-.025.01-.026.012-.053.016-.08.002-.015.009-.03.009-.045 0-.022-.008-.044-.013-.066-.004-.02-.004-.04-.012-.06a.338.338 0 0 0-.057-.086c-.006-.007-.009-.017-.016-.024l-.001-.001-1.004-1c-.011-.011-.024-.015-.036-.024a.25.25 0 0 0-.112-.056.278.278 0 0 0-.064-.012c-.02-.001-.039.001-.06.003a.291.291 0 0 0-.124.041c-.012.007-.026.009-.038.018l-1.108.827-.563-.561 1.499-1.491 2.725 2.68-.58.574zm4.262-4.386c-.01-.001-.019.002-.028.002a.348.348 0 0 0-.187.046.277.277 0 0 0-.052.038c-.008.007-.018.01-.025.018l-2.936 3.216-2.705-2.66 1.771-1.761a.334.334 0 0 0-.237-.57l-1.387.008.017-1.005 1.94.017a4.341 4.341 0 0 0 3.913 1.236c.025.02.05.04.081.053l1.506.6.095.474.111.553-1.877-.267zm2.526.112-.196-.974.904-.675.592.785-1.3.863zm2.346-1.77-.524.491-.582-.773.52-.398a.454.454 0 0 1 .639.089.447.447 0 0 1-.053.592z"/><path d="m8.501 11.59-1.339-1.333a.332.332 0 0 0-.47 0L5.353 11.59a.334.334 0 0 0 0 .472l1.339 1.333a.33.33 0 0 0 .47 0l1.339-1.333a.334.334 0 0 0 0-.472zm-1.574 1.099-.867-.863.867-.863.867.863-.867.863zM10.728 3.169l-.161.647c.044.011 1.086.282 1.086 1.343h.667c0-1.261-1.041-1.853-1.592-1.99zM12.319 5.826h-.667v.667h.667v-.667z"/></symbol><symbol id="icon-clock-1" viewBox="0 0 20 20"><path d="M19.56 9.563C19.559 4.28 15.275-.001 9.993 0S.429 4.285.43 9.567a9.566 9.566 0 0 0 6.656 9.11.416.416 0 0 0 .331-.041.401.401 0 0 0 .177-.223l2.416-7.656a1.195 1.195 0 1 0-.526-2.272L6.293 5.293a.4.4 0 0 0-.564.564l3.19 3.193c-.245.5-.105 1.103.335 1.443l-2.302 7.296C2.403 16.113.074 11.068 1.75 6.519S8.471-.359 13.02 1.317a8.776 8.776 0 0 1 .538 16.253l-.249-1.171a.398.398 0 0 0-.655-.214l-2.398 2.141a.399.399 0 0 0 .144.678l3.062.977a.398.398 0 0 0 .512-.463l-.244-1.149a9.535 9.535 0 0 0 5.831-8.806zm-9.565-.398a.4.4 0 1 1 0 .799.4.4 0 0 1 0-.799zm1.313 9.29 1.365-1.218.377 1.775-1.742-.558z"/><path d="M9.597 1.991v.797a.399.399 0 1 0 .798 0v-.797a.4.4 0 0 0-.798 0zM2.422 9.165a.4.4 0 0 0 0 .798h.797a.399.399 0 1 0 0-.798h-.797zM17.568 9.962a.399.399 0 1 0 0-.798h-.797a.4.4 0 0 0 0 .798h.797z"/></symbol><symbol id="icon-diagram-1" viewBox="0 0 20 20"><path d="M9.328 9.353h.666v2.998h-.666V9.353zM11.994 10.686h.666v1.666h-.666v-1.666zM6.663 11.685h.666v.666h-.666v-.666zM4.664 11.352h.666v.999h-.666v-.999z"/><path d="M.999 17.682h15.992a1 1 0 0 0 .999-.999V15.35a1 1 0 0 0-.999-.999h-.333V6.043L18.55 4.25a1.007 1.007 0 1 0-.128-1.729 1.005 1.005 0 0 0-.339 1.251l-1.426 1.352v-.769a1 1 0 0 0-.999-.999H2.332a1 1 0 0 0-.999.999v9.995H1a1 1 0 0 0-.999.999v1.333a1 1 0 0 0 .999.999zM18.99 3.023a.333.333 0 1 1 0 .666.333.333 0 0 1 0-.666zM1.999 4.355c0-.184.149-.333.333-.333h13.326c.184 0 .333.149.333.333v1.399l-.666.633V5.021a.333.333 0 0 0-.333-.333H2.998a.333.333 0 0 0-.333.333v8.329c0 .184.149.333.333.333h11.994a.333.333 0 0 0 .333-.333V7.304l.666-.631v7.677H1.998V4.355zm2.998 4.332a.998.998 0 1 0 .692 1.717l1.158.581a.333.333 0 0 0 .398-.077l2.462-2.77 2.42 1.813c.13.097.311.087.429-.025l2.103-1.992v5.082H3.332V5.353h11.327v1.663l-2.357 2.232-2.44-1.829a.334.334 0 0 0-.449.045l-2.496 2.808-.933-.467a.973.973 0 0 0 .013-.121 1 1 0 0 0-.999-.999zm.334.999a.333.333 0 1 1-.666 0 .333.333 0 0 1 .666 0zm1.998 5.331h3.332v.333a.333.333 0 0 1-.333.333H7.663a.333.333 0 0 1-.333-.333v-.333zm-6.663.333c0-.184.149-.333.333-.333h5.664v.333a1 1 0 0 0 .999.999h2.665a1 1 0 0 0 .999-.999v-.333h5.664c.184 0 .333.149.333.333v1.333a.333.333 0 0 1-.333.333H.998a.333.333 0 0 1-.333-.333V15.35z"/></symbol><symbol id="icon-facebook-1" viewBox="0 0 20 20"><path d="M13.331 3.321h1.826V.141A23.64 23.64 0 0 0 12.497 0C9.865 0 8.061 1.656 8.061 4.699V7.5H5.156v3.555h2.905V20h3.562v-8.944h2.787l.442-3.555h-3.231V5.052c.001-1.027.277-1.731 1.709-1.731z"/></symbol><symbol id="icon-instagram-2" viewBox="0 0 20 20"><path d="M19.98 5.88c-.047-1.063-.219-1.793-.465-2.426a4.88 4.88 0 0 0-1.157-1.774 4.923 4.923 0 0 0-1.77-1.153c-.637-.246-1.363-.418-2.426-.465-1.071-.051-1.411-.063-4.126-.063S6.981.011 5.914.058C4.851.105 4.121.277 3.488.523A4.88 4.88 0 0 0 1.714 1.68 4.936 4.936 0 0 0 .561 3.45C.315 4.087.143 4.813.096 5.876.045 6.947.033 7.286.033 10.002s.012 3.055.059 4.122c.047 1.063.219 1.793.465 2.426a4.93 4.93 0 0 0 1.156 1.774c.5.508 1.106.903 1.77 1.153.637.246 1.363.418 2.426.465 1.066.047 1.407.059 4.122.059s3.055-.012 4.122-.059c1.063-.047 1.793-.219 2.426-.465a5.118 5.118 0 0 0 2.927-2.926c.246-.637.418-1.364.465-2.426.047-1.067.059-1.407.059-4.122s-.004-3.055-.051-4.122zm-1.801 8.166c-.043.977-.207 1.504-.344 1.856a3.32 3.32 0 0 1-1.899 1.899c-.352.137-.883.301-1.856.344-1.055.047-1.371.059-4.04.059s-2.989-.012-4.04-.059c-.977-.043-1.504-.207-1.856-.344a3.078 3.078 0 0 1-1.149-.746 3.102 3.102 0 0 1-.746-1.149c-.137-.352-.301-.883-.344-1.856-.047-1.055-.059-1.371-.059-4.04s.012-2.989.059-4.04c.043-.977.207-1.504.344-1.856a3.04 3.04 0 0 1 .75-1.149 3.102 3.102 0 0 1 1.149-.746c.352-.137.883-.301 1.856-.344 1.055-.047 1.371-.059 4.04-.059 2.673 0 2.989.012 4.04.059.977.043 1.504.207 1.856.344.433.16.828.414 1.149.746.332.324.586.715.746 1.149.137.352.301.883.344 1.856.047 1.055.059 1.371.059 4.04s-.012 2.981-.059 4.036z"/><path d="M10.037 4.864a5.139 5.139 0 1 0 .002 10.274 5.139 5.139 0 0 0-.002-10.274zm0 8.471a3.333 3.333 0 1 1 0-6.667 3.333 3.333 0 0 1 0 6.667zM16.578 4.661a1.2 1.2 0 1 1-2.399 0 1.2 1.2 0 0 1 2.399 0z"/></symbol><symbol id="icon-linkedin-1" viewBox="0 0 20 20"><path d="M19.995 20v-.001H20v-7.335c0-3.588-.773-6.352-4.968-6.352-2.017 0-3.37 1.107-3.922 2.156h-.058V6.647H7.074v13.352h4.142v-6.612c0-1.741.33-3.424 2.486-3.424 2.124 0 2.156 1.987 2.156 3.536V20h4.138zM.33 6.647h4.147V20H.33V6.647zM2.402 0C1.076 0 0 1.076 0 2.402s1.076 2.424 2.402 2.424 2.402-1.098 2.402-2.424S3.727 0 2.402 0z"/></symbol><symbol id="icon-logo-1" viewBox="0 0 35 20"><path d="m12.459 2.529 2.298 2.175-4.265-.003v10.553H21.64v-4.035l2.295 2.173V2.528H12.46zm9.079 8.435-6.515-6.167h6.515v6.167zm-2.022 2.747h-7.26V6.613h.513v6.617h6.747v.481zM13.97 16.66l-.268.552-.268-.552h-.225l.391.736v.429h.203v-.429l.391-.736h-.224zm.337 1.165.094-.271h.451l.095.271h.211l-.441-1.165h-.182l-.44 1.165h.211zm.32-.918.169.483h-.338l.169-.483zm1.068.456a.267.267 0 0 0-.044.148c0 .098.034.178.103.239s.162.091.277.091.215-.031.298-.094l.066.078h.226l-.171-.203a.583.583 0 0 0 .101-.353h-.169c0 .078-.016.15-.049.214l-.225-.266.079-.058c.056-.041.096-.081.121-.122s.037-.086.037-.134c0-.074-.027-.135-.082-.185s-.123-.075-.208-.075c-.094 0-.169.027-.224.08s-.083.125-.083.216c0 .037.009.076.026.116s.05.089.095.146a.718.718 0 0 0-.174.161zm.526.257a.295.295 0 0 1-.184.066c-.058 0-.105-.017-.139-.05s-.052-.077-.052-.131c0-.062.032-.118.096-.166l.025-.018.255.3zm-.209-.516c-.055-.068-.082-.124-.082-.169 0-.039.011-.071.034-.097s.053-.038.09-.038c.035 0 .064.011.087.033s.034.047.034.078a.144.144 0 0 1-.05.113l-.025.02-.089.061zm1.897.633a.424.424 0 0 0 .138-.291h-.202c-.011.083-.036.143-.076.179s-.1.054-.179.054c-.087 0-.153-.033-.198-.099s-.067-.162-.067-.288v-.103c.001-.124.025-.219.072-.283s.115-.097.203-.097c.076 0 .133.019.172.056s.064.097.074.181h.202c-.013-.128-.058-.226-.137-.296s-.182-.105-.311-.105a.436.436 0 0 0-.42.262.684.684 0 0 0-.058.291v.109c.002.107.022.201.06.283a.43.43 0 0 0 .409.254.471.471 0 0 0 .319-.104zm1.19-.163a.71.71 0 0 0 .059-.301v-.065c-.001-.114-.021-.213-.061-.299a.445.445 0 0 0-.422-.266.45.45 0 0 0-.423.269.712.712 0 0 0-.06.301v.066c.001.112.021.21.061.295s.098.151.171.198a.468.468 0 0 0 .253.069c.096 0 .18-.023.253-.069s.13-.113.17-.199zm-.216-.659a.509.509 0 0 1 .074.297v.061c0 .131-.024.231-.073.299s-.117.102-.206.102c-.089 0-.158-.035-.208-.105s-.074-.169-.074-.297v-.067c.001-.125.026-.222.075-.291s.118-.103.206-.103c.09 0 .159.034.207.103z"/></symbol><symbol id="icon-logo-2" viewBox="0 0 35 20"><path d="M16.431 2.18h-.045c-.069-.004-.138-.006-.207-.008h-.149a7.492 7.492 0 0 0-.425.01 9.26 9.26 0 0 0-3.448.88l-.142.068v7.259l.332-.113c.291-.1.601-.19.922-.273a11.273 11.273 0 0 1 2.654-.353v.954a7.948 7.948 0 0 0-.349.01h-.027a10.68 10.68 0 0 0-4.475 1.261v-9.31a9.753 9.753 0 0 1 2.552-1.038 9.762 9.762 0 0 1 2.405-.31h.14c.168.004.331.012.484.023.404.028.805.092 1.198.191v.939a7.347 7.347 0 0 0-1.161-.175l-.024-.002c-.081-.007-.162-.014-.237-.014zm1.652.959c.208.016.424.023.642.023a10.328 10.328 0 0 0 2.529-.324 10.426 10.426 0 0 0 2.432-.949v9.144a9.794 9.794 0 0 1-2.553 1.038 9.81 9.81 0 0 1-2.405.309 7.335 7.335 0 0 1-1.825-.215V2.961a7.082 7.082 0 0 0 1.18.177zm4.654.071-.332.112c-.305.103-.613.194-.922.276-.901.231-1.826.35-2.756.354-.216 0-.416-.006-.608-.018l-.265-.017v7.468l.227.02c.211.018.428.027.647.027a8.843 8.843 0 0 0 2.171-.281 9.124 9.124 0 0 0 1.696-.609l.142-.068V3.212zM11.717 15.058a.5.5 0 0 0-.369-.149.556.556 0 0 0-.213.04.474.474 0 0 0-.273.276.534.534 0 0 0-.038.206v1.244a.586.586 0 0 0 .049.255.5.5 0 0 0 .124.167.43.43 0 0 0 .171.088c.06.017.123.026.186.026a.516.516 0 0 0 .476-.325.515.515 0 0 0 .04-.198v-.139h-.325v.111a.298.298 0 0 1-.019.111.221.221 0 0 1-.047.07.211.211 0 0 1-.068.036.262.262 0 0 1-.068.012.166.166 0 0 1-.152-.067.288.288 0 0 1-.043-.167v-1.16a.4.4 0 0 1 .04-.186.167.167 0 0 1 .159-.075.174.174 0 0 1 .145.07.271.271 0 0 1 .054.167v.108h.322v-.127a.585.585 0 0 0-.149-.393zM13.649 15.043a.56.56 0 0 0-.736 0 .505.505 0 0 0-.126.174.57.57 0 0 0-.047.241v1.193a.583.583 0 0 0 .047.244.48.48 0 0 0 .126.167.56.56 0 0 0 .736 0 .497.497 0 0 0 .123-.167.568.568 0 0 0 .047-.244v-1.193a.535.535 0 0 0-.17-.415zm-.152 1.609a.215.215 0 0 1-.065.173.238.238 0 0 1-.306 0 .215.215 0 0 1-.065-.173v-1.193a.215.215 0 0 1 .065-.173.238.238 0 0 1 .306 0 .215.215 0 0 1 .065.173v1.193zM16.186 17.184v-2.259h-.313l-.411 1.196h-.006l-.414-1.196h-.309v2.259h.323V15.81h.006l.316.971h.161l.318-.971h.006v1.374h.323zM18.019 15.084a.44.44 0 0 0-.183-.123.718.718 0 0 0-.234-.035h-.479v2.259h.322v-.882h.166c.1.005.2-.017.29-.062a.474.474 0 0 0 .177-.173.553.553 0 0 0 .074-.197c.013-.085.018-.171.017-.257a1.257 1.257 0 0 0-.032-.323.473.473 0 0 0-.119-.208zm-.166.689a.286.286 0 0 1-.03.118.172.172 0 0 1-.083.079.332.332 0 0 1-.152.028h-.147v-.768h.166c.05-.002.1.007.145.028.033.019.06.048.075.083.018.04.027.082.028.126v.15c0 .052.003.107 0 .155h-.003zM19.544 14.926h-.264l-.498 2.259h.322l.095-.485h.439l.095.485h.322l-.51-2.259zm-.297 1.466.158-.819h.006l.158.819h-.322zM21.623 16.286h-.006l-.486-1.361h-.309v2.259h.322v-1.358h.007l.492 1.358h.303v-2.259h-.322v1.361zM23.589 14.926l-.259.898h-.007l-.259-.898h-.341l.442 1.304v.955h.322v-.955l.442-1.304h-.341zM10.82 17.822h.155v.435h.105v-.435h.154v-.089h-.415v.089zM12.124 17.733l-.203.524h.112l.043-.119h.209l.045.119h.114l-.208-.524h-.112zm-.017.317.071-.194.071.194h-.143zM13.412 18.064h.121v.067a.2.2 0 0 1-.124.044c-.021.001-.042-.003-.062-.011s-.036-.022-.05-.039a.216.216 0 0 1-.039-.137c0-.117.051-.175.151-.175.026-.003.053.004.075.02s.037.038.044.064l.104-.02c-.022-.103-.096-.154-.222-.154a.26.26 0 0 0-.183.068c-.026.026-.047.058-.06.092s-.018.072-.016.109a.288.288 0 0 0 .067.197.247.247 0 0 0 .199.076.318.318 0 0 0 .222-.083v-.207h-.227v.088zM14.729 17.733h-.106v.524h.367v-.089h-.261v-.435zM15.842 17.733h-.106v.524h.106v-.524zM16.93 18.083l-.215-.35h-.103v.524h.099v-.343l.211.343h.105v-.524h-.097v.35zM17.914 18.026h.261v-.089h-.261v-.115h.281v-.089h-.387v.524h.398v-.089h-.292v-.142zM20.299 17.94h-.207v-.207h-.105v.524h.105v-.229h.207v.229h.105v-.524h-.105v.207zM21.289 18.026h.262v-.089h-.262v-.115h.282v-.089h-.387v.524h.397v-.089h-.292v-.142zM22.631 18.026c.091-.014.138-.063.138-.146.003-.022-.001-.045-.01-.065s-.023-.038-.042-.051a.299.299 0 0 0-.153-.031h-.222v.524h.105v-.219h.021a.152.152 0 0 1 .066.012c.015.01.028.023.037.038l.114.167h.126l-.064-.103a.36.36 0 0 0-.116-.126zm-.107-.072h-.078v-.132h.083a.259.259 0 0 1 .107.013c.008.007.014.015.018.025s.006.02.005.03c0 .01-.003.02-.008.029s-.012.017-.02.023a.278.278 0 0 1-.107.012zM23.643 18.026h.261v-.089h-.261v-.115h.282v-.089h-.388v.524h.398v-.089h-.292v-.142z"/></symbol><symbol id="icon-logo-3" viewBox="0 0 35 20"><path d="M12.135 16.367c.005 0 .011.001.015.003l.013.008.073.069a.603.603 0 0 1-.204.132.792.792 0 0 1-.29.047.766.766 0 0 1-.273-.044.586.586 0 0 1-.205-.125.548.548 0 0 1-.133-.193.637.637 0 0 1-.046-.247.586.586 0 0 1 .409-.567.856.856 0 0 1 .281-.044.766.766 0 0 1 .261.04.706.706 0 0 1 .195.111l-.061.074a.047.047 0 0 1-.015.013c-.007.004-.016.006-.025.006s-.019-.003-.026-.008l-.033-.02-.045-.025c-.02-.009-.04-.018-.061-.024a.654.654 0 0 0-.393.005.462.462 0 0 0-.158.093.45.45 0 0 0-.14.344.524.524 0 0 0 .037.199.43.43 0 0 0 .252.24.561.561 0 0 0 .187.032.826.826 0 0 0 .111-.006.424.424 0 0 0 .24-.102.06.06 0 0 1 .035-.013zM14.235 16.018a.617.617 0 0 1-.049.246c-.03.071-.076.136-.137.191s-.134.097-.215.125a.886.886 0 0 1-.553 0 .63.63 0 0 1-.214-.126.541.541 0 0 1-.138-.193.645.645 0 0 1 0-.492.576.576 0 0 1 .138-.193.636.636 0 0 1 .214-.121.872.872 0 0 1 .553 0c.081.028.154.071.214.126a.572.572 0 0 1 .186.437zm-.191 0a.512.512 0 0 0-.035-.197.405.405 0 0 0-.251-.241.642.642 0 0 0-.402 0 .4.4 0 0 0-.252.241.583.583 0 0 0 0 .395.412.412 0 0 0 .252.24c.13.042.272.042.402 0a.397.397 0 0 0 .251-.24.536.536 0 0 0 .035-.197zM15.667 16.225l.019.044a.92.92 0 0 1 .045-.087l.464-.734c.009-.013.017-.021.026-.023a.12.12 0 0 1 .038-.004h.137v1.193h-.163V15.659l-.467.744c-.006.011-.015.021-.027.027s-.026.01-.04.01h-.026c-.014 0-.028-.003-.04-.01s-.021-.016-.027-.027l-.481-.749v.958h-.157v-1.191h.137a.12.12 0 0 1 .038.004c.011.005.02.013.025.023l.474.734a.362.362 0 0 1 .024.043zM17.415 16.166v.447h-.182v-1.191h.405a.896.896 0 0 1 .226.026c.059.014.113.04.16.074.04.032.072.072.091.117a.366.366 0 0 1-.003.304.32.32 0 0 1-.098.119.457.457 0 0 1-.161.079.77.77 0 0 1-.219.028l-.22-.003zm0-.128h.22a.515.515 0 0 0 .141-.018.306.306 0 0 0 .102-.051.224.224 0 0 0 .084-.179c.002-.033-.004-.066-.018-.097s-.036-.059-.064-.081a.39.39 0 0 0-.244-.064h-.22v.491zM19.858 16.614h-.144a.069.069 0 0 1-.04-.011.081.081 0 0 1-.024-.028l-.124-.288h-.621l-.128.288a.067.067 0 0 1-.023.027.073.073 0 0 1-.041.012h-.144l.545-1.193h.189l.553 1.193zm-.9-.443h.513l-.216-.486a.794.794 0 0 1-.041-.112l-.021.062c-.006.019-.014.036-.02.051l-.214.485zM20.643 15.427a.07.07 0 0 1 .027.021l.795.899V15.421h.163v1.193h-.091c-.013 0-.026-.002-.037-.007s-.021-.013-.029-.022l-.794-.899V16.613h-.163V15.42h.096c.011 0 .022.002.033.006zM22.968 16.14v.474h-.182v-.474l-.503-.719h.163a.065.065 0 0 1 .039.01c.01.008.018.017.025.027l.314.464c.013.02.024.038.033.055s.016.034.023.051l.024-.051a.36.36 0 0 1 .031-.054l.31-.467c.007-.009.014-.018.024-.025a.067.067 0 0 1 .039-.012h.164l-.503.722zM15.577 13.419c.079.009.159.016.24.022 1.226-.477 2.264-1.257 2.982-2.243s1.087-2.134 1.059-3.301l-1.351-1.174c.275 1.242.146 2.527-.371 3.709s-1.403 2.217-2.559 2.987z"/><path d="m15.095 13.364.036.006c1.235-.767 2.176-1.839 2.702-3.076s.613-2.583.25-3.863l-1.925-1.672c.779 1.375 1.092 2.913.904 4.437s-.87 2.969-1.967 4.169zM21.623 9.276c-.327 1.282-1.121 2.439-2.265 3.297a7.197 7.197 0 0 1-1.076.671c.931-.238 1.787-.658 2.502-1.229s1.269-1.276 1.62-2.062l-.781-.678z"/><path d="m21.316 9.087-1.112-.966c-.021 1.101-.382 2.177-1.043 3.116s-1.601 1.707-2.72 2.224h.005c.249 0 .499-.013.746-.039 1.046-.371 1.97-.961 2.689-1.717s1.212-1.656 1.434-2.618zM15.255 4.054 13.929 2.9c-1.185.398-2.205 1.098-2.925 2.007S9.897 6.894 9.893 7.998c.004 1.22.477 2.404 1.343 3.364s2.076 1.642 3.438 1.938c1.216-1.287 1.928-2.878 2.033-4.541s-.404-3.312-1.452-4.706zM24.38 8.909c-.005-1.447-.669-2.834-1.847-3.858s-2.774-1.6-4.44-1.605a7.057 7.057 0 0 0-2.251.364l8.119 7.054c.278-.623.42-1.286.42-1.955z"/></symbol><symbol id="icon-logo-4" viewBox="0 0 35 20"><path d="M8.049 7.034h-.001c-.799 0-1.447.576-1.447 1.286v.001c0 .71.648 1.286 1.447 1.286h.001c.799 0 1.447-.576 1.447-1.286V8.32c0-.71-.648-1.286-1.447-1.286zM18.732 6.623c-.002-.987-.444-1.932-1.229-2.63S15.654 2.902 14.544 2.9c-1.111.002-2.175.395-2.96 1.092s-1.228 1.644-1.23 2.631v5.441s8.378-.829 8.379-5.44v-.001zM3.667 13.85c.002.687.31 1.344.856 1.83s1.286.759 2.059.761c.772-.002 1.512-.276 2.058-.761s.854-1.143.856-1.829v-3.786s-5.829.577-5.829 3.785zm2.914.678c-.151 0-.299-.04-.424-.114s-.223-.18-.281-.304c-.058-.124-.073-.26-.043-.392s.102-.252.209-.347a.837.837 0 0 1 .832-.147c.139.051.259.138.343.25a.627.627 0 0 1 .072.637.678.678 0 0 1-.165.221.83.83 0 0 1-.541.2v-.003zM12.473 14.155h-.563v.581h-.293v-1.422h.926v.237h-.633v.367h.563v.236zm1.408-.098c0 .14-.025.263-.074.368s-.12.187-.213.244a.587.587 0 0 1-.316.086.57.57 0 0 1-.53-.327.824.824 0 0 1-.077-.363v-.07c0-.14.025-.263.075-.369a.564.564 0 0 1 .53-.331.558.558 0 0 1 .529.331c.05.107.076.229.076.368v.063zm-.297-.065c0-.149-.027-.262-.08-.34s-.13-.116-.228-.116-.174.038-.228.115-.08.188-.081.336v.069c0 .145.027.258.08.338s.13.12.23.12c.098 0 .174-.038.227-.115s.079-.19.08-.338v-.069zm1.247.371c0-.055-.02-.098-.059-.127s-.109-.061-.211-.094a1.46 1.46 0 0 1-.241-.098c-.161-.087-.242-.205-.242-.353 0-.077.021-.145.064-.205s.106-.108.187-.142c.081-.034.173-.051.273-.051s.192.019.272.056a.406.406 0 0 1 .251.383h-.293c0-.065-.021-.116-.062-.151s-.099-.055-.173-.055c-.072 0-.127.015-.167.046s-.06.07-.06.119c0 .046.023.085.069.116s.116.061.206.088c.167.05.288.112.364.187s.114.167.114.277c0 .123-.047.22-.14.29s-.218.104-.376.104c-.109 0-.209-.02-.299-.06s-.159-.095-.206-.165a.422.422 0 0 1-.07-.242h.294c0 .157.094.235.281.235.07 0 .124-.014.163-.042s.059-.068.059-.119zm1.563-.812h-.436v1.185h-.293v-1.185h-.43v-.237h1.158v.237zm1.024.568h-.562v.381h.66v.235h-.953v-1.422h.951v.237h-.658v.339h.563v.229zm.796.096h-.233v.521h-.293v-1.422h.528c.168 0 .297.037.389.112s.137.181.137.317c0 .097-.021.178-.063.243s-.105.116-.19.154l.308.581v.014h-.314l-.267-.521zm-.234-.237h.236c.074 0 .131-.019.171-.056s.061-.09.061-.155c0-.067-.019-.12-.058-.158s-.096-.058-.175-.058h-.235v.427zm1.776.257v.501h-.293v-1.422h.555c.107 0 .201.02.281.059s.144.095.188.167a.458.458 0 0 1 .065.245c0 .139-.048.249-.144.33s-.227.12-.396.12h-.257zm0-.238h.262c.078 0 .136-.018.177-.055s.062-.089.062-.156c0-.07-.021-.126-.062-.169s-.098-.065-.17-.066h-.269v.446zm1.853.122h-.563v.381h.66v.235h-.953v-1.422h.951v.237h-.658v.339h.563v.229zm1.36-.568h-.436v1.185h-.293v-1.185h-.43v-.237h1.158v.237zm1.023.568h-.563v.381h.66v.235h-.953v-1.422h.951v.237h-.658v.339h.563v.229zm.796.096h-.233v.521h-.293v-1.422h.528c.168 0 .298.037.389.112s.137.181.137.317c0 .097-.021.178-.063.243s-.105.116-.19.154l.308.581v.014h-.314l-.267-.521zm-.233-.237h.236c.074 0 .131-.019.171-.056s.061-.09.061-.155c0-.067-.019-.12-.058-.158s-.096-.058-.175-.058h-.235v.427zm1.721.385c0-.055-.02-.098-.059-.127s-.109-.061-.211-.094a1.46 1.46 0 0 1-.241-.098c-.161-.087-.242-.205-.242-.353 0-.077.022-.145.064-.205s.106-.108.187-.142c.081-.034.173-.051.273-.051s.192.019.272.056a.406.406 0 0 1 .251.383h-.293c0-.065-.021-.116-.062-.151s-.099-.055-.173-.055c-.072 0-.127.015-.167.046s-.06.07-.06.119c0 .046.023.085.069.116s.116.061.206.088c.167.05.288.112.364.187s.114.167.114.277c0 .123-.047.22-.14.29s-.218.104-.376.104c-.109 0-.209-.02-.299-.06s-.159-.095-.206-.165a.422.422 0 0 1-.07-.242h.294c0 .157.094.235.281.235.07 0 .124-.014.163-.042s.059-.068.059-.119z"/></symbol><symbol id="icon-logo-5" viewBox="0 0 35 20"><path d="M8.919 14.912a.48.48 0 0 1 .122.326c.004.077-.011.154-.044.225s-.083.135-.146.186a.878.878 0 0 1-.551.15h-.968v-2.064h.948a.866.866 0 0 1 .525.137c.061.047.11.106.142.173s.046.14.042.213a.449.449 0 0 1-.11.316.522.522 0 0 1-.288.161.564.564 0 0 1 .327.176zM7.784 14.6h.405a.41.41 0 0 0 .258-.069c.03-.025.054-.057.069-.092s.021-.073.018-.11c.003-.037-.003-.075-.018-.11s-.038-.066-.068-.092a.418.418 0 0 0-.265-.07h-.399v.541zm.702.792c.033-.026.058-.058.075-.095s.024-.076.021-.115c.002-.04-.005-.08-.022-.116s-.043-.069-.076-.095a.449.449 0 0 0-.275-.075h-.425v.568h.431a.453.453 0 0 0 .272-.072zM10.857 15.799l-.527-.807h-.198v.807h-.454v-2.064h.859a.9.9 0 0 1 .598.175.62.62 0 0 1 .064.854.721.721 0 0 1-.41.21l.562.825h-.493zm-.726-1.088h.371c.258 0 .387-.104.387-.313.003-.043-.004-.085-.021-.125s-.042-.076-.074-.107a.429.429 0 0 0-.292-.084h-.376l.004.628zM13.337 15.384h-.904l-.16.415h-.476l.83-2.041h.514l.827 2.041h-.476l-.156-.415zm-.121-.313-.33-.871-.33.871h.661zM16.441 15.799h-.45l-1.01-1.403v1.403h-.449v-2.064h.449l1.01 1.412v-1.412h.45v2.064zM19.011 15.305a.936.936 0 0 1-.407.364 1.43 1.43 0 0 1-.633.13h-.802v-2.064h.802c.219-.005.436.038.633.127.172.08.314.205.407.36a1.114 1.114 0 0 1 0 1.082zm-.515-.049c.129-.137.199-.312.199-.493s-.071-.355-.199-.493a.829.829 0 0 0-.564-.175h-.313v1.336h.313a.83.83 0 0 0 .564-.175zM13.619 2.256s5.813 2.009 5.69 4.917v4.918s-5.808-2.01-5.687-4.918l-.002-4.917zM24.487 10.939a8.43 8.43 0 0 1 3.693-1.246v-1.54c-1.527.539-2.823 1.516-3.693 2.786z"/><path d="M23.827 11.403c.899-1.657 2.456-2.935 4.353-3.572V3.395s-8.278 2.862-8.103 7.003V17.4s.369-.128.949-.368c0-.224 0-.45.026-.677.171-1.922 1.169-3.704 2.775-4.952z"/><path d="M23.04 14.004a6.66 6.66 0 0 1 .29-1.434c-1 1.078-1.605 2.416-1.731 3.826a5.9 5.9 0 0 0-.022.403c.47-.207 1.017-.465 1.592-.768a6.646 6.646 0 0 1-.129-2.028zM23.369 14.03a6.36 6.36 0 0 0 .102 1.836c2.262-1.239 4.803-3.154 4.705-5.468v-.202c-1.616.166-3.128.812-4.303 1.841a6.419 6.419 0 0 0-.504 1.992z"/></symbol><symbol id="icon-logo-6" viewBox="0 0 35 20"><path d="M17.808 9.136a.986.986 0 0 1-.202-.663v-.961c0-.295.067-.518.2-.672s.363-.229.688-.229c.306 0 .523.065.651.196.14.166.208.37.192.575v.226h-.547v-.229a1.121 1.121 0 0 0-.016-.224.214.214 0 0 0-.078-.133.316.316 0 0 0-.198-.052.333.333 0 0 0-.208.055.26.26 0 0 0-.091.147 1.116 1.116 0 0 0-.022.238v1.166a.6.6 0 0 0 .07.328c.027.035.065.062.109.079s.093.024.141.018c.07.005.14-.014.194-.053a.236.236 0 0 0 .082-.142 1.31 1.31 0 0 0 .017-.234v-.237h.547v.216a.88.88 0 0 1-.189.604c-.126.143-.34.214-.655.214s-.553-.076-.687-.235zM20.086 9.146c-.138-.15-.207-.368-.207-.656V7.479c0-.285.069-.502.207-.648s.369-.22.693-.219c.322 0 .552.073.69.219s.208.363.208.648V8.49c0 .285-.07.504-.211.655s-.369.226-.687.226c-.318 0-.554-.076-.693-.225zm.947-.243a.572.572 0 0 0 .066-.299V7.366a.548.548 0 0 0-.065-.293c-.028-.035-.066-.063-.112-.081s-.095-.023-.144-.017c-.049-.006-.099 0-.145.017s-.084.045-.112.08a.542.542 0 0 0-.066.293v1.244a.551.551 0 0 0 .066.299c.032.032.071.057.115.074a.392.392 0 0 0 .282 0 .335.335 0 0 0 .115-.074v-.006zM22.334 6.641h.589l.443 1.865.453-1.865h.573l.058 2.692h-.424l-.045-1.871-.437 1.871h-.34l-.453-1.878-.042 1.878h-.428l.053-2.692zM25.11 6.641h.917c.528 0 .793.255.793.764 0 .488-.278.732-.835.731h-.313v1.197h-.566l.003-2.692zm.784 1.151a.447.447 0 0 0 .312-.085.437.437 0 0 0 .082-.304.839.839 0 0 0-.027-.244c-.008-.027-.022-.052-.042-.074s-.044-.04-.072-.054a.585.585 0 0 0-.253-.043h-.22v.805h.22zM27.636 6.641h.608l.624 2.692h-.528l-.123-.621h-.542l-.127.621h-.536l.624-2.692zm.52 1.76-.212-1.13-.212 1.13h.423zM29.372 6.641h.396l.759 1.536V6.641h.47v2.692h-.377l-.763-1.603v1.603h-.486l.001-2.692zM32.098 8.307l-.631-1.662h.531l.385 1.068.361-1.068h.52l-.623 1.662v1.027h-.544V8.307zM18.683 10.511v.141h-.462v1.094h-.194v-1.094h-.464v-.141h1.12zM20.131 11.745h-.149a.063.063 0 0 1-.042-.012.067.067 0 0 1-.025-.028l-.134-.293h-.641l-.134.293a.086.086 0 0 1-.02.033.076.076 0 0 1-.042.012h-.149l.566-1.235h.197l.573 1.23zm-.938-.458h.535l-.227-.502a.85.85 0 0 1-.042-.116l-.022.066-.02.052-.224.502zM21.107 11.624a.69.69 0 0 0 .279-.038l.076-.03v-.278h-.226c-.006 0-.011 0-.016-.002s-.01-.004-.014-.008a.027.027 0 0 1-.012-.022v-.095h.439v.473a.81.81 0 0 1-.239.101.958.958 0 0 1-.142.025c-.055.005-.11.008-.165.008a.851.851 0 0 1-.285-.046.673.673 0 0 1-.226-.129.588.588 0 0 1-.198-.452.575.575 0 0 1 .197-.454.675.675 0 0 1 .227-.128.94.94 0 0 1 .303-.046c.053 0 .105.004.157.011a.777.777 0 0 1 .248.08c.035.02.068.041.099.065l-.054.076c-.004.007-.011.013-.018.017s-.017.006-.026.007a.068.068 0 0 1-.035-.01l-.056-.029a.636.636 0 0 0-.18-.06.865.865 0 0 0-.144-.011.673.673 0 0 0-.219.034.468.468 0 0 0-.166.098.42.42 0 0 0-.105.154.574.574 0 0 0 0 .412.489.489 0 0 0 .278.253c.072.021.148.03.224.024zM22.912 11.605h.618v.141h-.807v-1.235h.194l-.005 1.094zM24.174 11.745h-.194V10.51h.194v1.235zM24.894 10.516a.074.074 0 0 1 .029.023l.828.931a.323.323 0 0 1 0-.044v-.92h.169v1.24h-.097a.087.087 0 0 1-.042-.007.12.12 0 0 1-.031-.023l-.827-.93v.96h-.162v-1.235h.101c.011 0 .022.002.032.006zM27.345 10.511v.136h-.686v.408h.556v.131h-.556v.421h.686v.136h-.886v-1.232h.886zM7.054 2.885l8.598 2.108v7.386l-8.598-2.107V2.885zm-.552-.629v8.375l9.7 2.379V4.636l-9.7-2.38z"/><path d="M11.701 16.897 2 14.516V6.142l9.701 2.38v8.375z"/><path d="m6.663 2.79 8.486 2.081-3.609 3.117-8.487-2.082 3.61-3.116zm-.161-.534L2 6.143l9.701 2.379 4.501-3.887-9.7-2.38zM12.247 16.426l3.955-3.416-3.955-.971v4.387z"/></symbol><symbol id="icon-twitter-1" viewBox="0 0 20 20"><path d="M20 3.799a8.557 8.557 0 0 1-2.363.648 4.08 4.08 0 0 0 1.804-2.266 8.208 8.208 0 0 1-2.6.992 4.099 4.099 0 0 0-7.092 2.803c0 .325.028.638.095.935-3.409-.166-6.425-1.8-8.451-4.289a4.104 4.104 0 0 0 1.26 5.48A4.049 4.049 0 0 1 .8 7.597v.045a4.12 4.12 0 0 0 3.285 4.029 4.101 4.101 0 0 1-1.075.135c-.263 0-.527-.015-.776-.07.531 1.624 2.039 2.818 3.831 2.856a8.24 8.24 0 0 1-5.084 1.749A7.72 7.72 0 0 1 0 16.285a11.545 11.545 0 0 0 6.29 1.84c7.545 0 11.67-6.25 11.67-11.667 0-.181-.006-.356-.015-.53A8.16 8.16 0 0 0 20 3.799z"/></symbol></defs></svg>